<svg id="Layer_1" enable-background="new 0 0 512.007 512.007" height="512" viewBox="0 0 512.007 512.007" width="512" xmlns="http://www.w3.org/2000/svg"><g><g><path d="m146.336 189.095h168v240.575h-168z" fill="#ffcebf"/><path d="m146.336 189.095v117.69l112.866 5.581c14.078.696 25.134 12.313 25.134 26.407v90.896h30v-240.574z" fill="#ffb09e"/><path d="m354.44 108.36v125.84c0 34.698-28.121 62.834-62.801 62.834h-110.813c-41.327 0-74.82-33.523-74.82-74.86v-113.814z" fill="#ffcebf"/><path d="m323.383 149.507s-85.547 7.213-103.341 61.598c-24.41 74.607 48.902 95.735 103.341 50.421z" fill="#ffb09e"/><path d="m504.503 73.508v50.258c0 3.396-3.094 5.948-6.425 5.289-72.855-14.406-218.842-34.653-307.765 10.963-80.41 41.25-139.46 50.82-176.94 50.82-.17 0-.34 0-.509-.001-2.967-.007-5.361-2.425-5.361-5.392v-49.291c0-2.98 2.411-5.397 5.391-5.388 4.897.014 10.468-.193 16.709-.748 26.89-2.38 71.85-11.85 133.33-43.38 101.617-52.125 254.422-34.041 337.185-18.427 2.547.48 4.385 2.704 4.385 5.297z" fill="#ee6161"/><path d="m199.175 157.542c17.153 0 31.057-13.905 31.057-31.057v-75.98c0-17.153-13.905-31.057-31.057-31.057-17.153 0-31.057 13.905-31.057 31.057v75.979c-.001 17.153 13.904 31.058 31.057 31.058z" fill="#ffcebf"/><path d="m199.175 19.448c-.86 0-1.71.044-2.553.113 2.302 4.337 3.61 9.282 3.61 14.534v75.979c0 16.292-12.547 29.645-28.505 30.944 5.215 9.827 15.547 16.523 27.447 16.523 17.152 0 31.057-13.905 31.057-31.057v-75.979c.001-17.152-13.904-31.057-31.056-31.057z" fill="#ffb09e"/><path d="m261.268 160.687c17.153 0 31.057-13.905 31.057-31.057v-91.079c0-17.153-13.905-31.057-31.057-31.057-17.152 0-31.057 13.905-31.057 31.057v91.079c-.001 17.153 13.904 31.057 31.057 31.057z" fill="#ffcebf"/><path d="m261.268 7.494c-.58 0-1.156.019-1.729.05 1.784 3.918 2.786 8.267 2.786 12.853v91.079c0 16.572-12.981 30.11-29.329 31.007 4.889 10.736 15.705 18.204 28.271 18.204 17.152 0 31.057-13.905 31.057-31.057v-91.079c.001-17.152-13.904-31.057-31.056-31.057z" fill="#ffb09e"/><path d="m323.382 160.687c17.153 0 31.057-13.905 31.057-31.057v-91.079c0-17.153-13.905-31.057-31.057-31.057-17.153 0-31.057 13.905-31.057 31.057v91.079c0 17.153 13.905 31.057 31.057 31.057z" fill="#ffcebf"/><path d="m323.383 7.494c-1.142 0-2.267.066-3.377.186 2.813 4.673 4.434 10.145 4.434 15.996v91.079c0 16.011-12.117 29.188-27.681 30.871 5.433 9.024 15.322 15.061 26.623 15.061 17.152 0 31.057-13.905 31.057-31.057v-91.079c.001-17.152-13.904-31.057-31.056-31.057z" fill="#ffb09e"/><path d="m137.06 173.952c17.153 0 31.057-13.905 31.057-31.057v-75.979c0-17.153-13.905-31.057-31.057-31.057-17.153 0-31.057 13.905-31.057 31.057v75.979c0 17.153 13.904 31.057 31.057 31.057z" fill="#ffcebf"/><path d="m137.06 35.858c-.489 0-.974.014-1.457.037 1.616 3.759 2.514 7.9 2.514 12.251v75.979c0 16.664-13.125 30.259-29.601 31.021 4.753 11.06 15.742 18.806 28.543 18.806 17.153 0 31.057-13.905 31.057-31.057v-75.979c.001-17.153-13.904-31.058-31.056-31.058z" fill="#ffb09e"/><path d="m237.496 238.347c3.185-18.459 17.158-41.986 17.158-41.986 16.735-22.106 34.958-34.723 60.691-33.846 7.905.269 23.626-5.168 25.751-14.607.448-1.992-.544-4.031-2.393-4.894l-14.817-6.921c-26.308-12.288-33.692-44.269-30.355-58.38 3.565-15.077 11.512-22.071 17.241-19.395 0 0 65.655 29.783 84.645 39.201 6.577 3.262 10.691 10.021 10.582 17.368l-.807 54.702c-.294 19.933-6.94 39.252-18.968 55.14l-28.044 37.045c-38.398 50.682-72.568 39.949-118.151 35.259.001-.002-7.503-29.881-2.533-58.686z" fill="#ffcebf"/><path d="m395.418 97.517c-18.991-9.418-84.645-39.201-84.645-39.201-4.45-2.079-10.229 1.701-14.263 10.548 20.661 9.426 55.837 25.555 68.908 32.038 6.577 3.262 10.691 10.021 10.582 17.368l-.807 54.702c-.294 19.933-6.94 39.252-18.968 55.14l-28.044 37.045c-15.799 20.854-30.883 31.304-46.34 36.062 26.696.921 50.566-5.426 76.34-39.447l28.044-37.045c12.028-15.888 18.674-35.207 18.968-55.141l.807-54.701c.109-7.347-4.005-14.106-10.582-17.368z" fill="#ffb09e"/><path d="m320.899 504.494h-182v-100c0-2.209 1.791-4 4-4h174c2.209 0 4 1.791 4 4z" fill="#ee6161"/><path d="m290.899 400.494v104h30v-100.03c0-2.193-1.791-3.97-4-3.97z" fill="#e94444"/></g><g><path d="m501.509 60.841c-7.413-1.398-14.938-2.731-22.37-3.962-4.073-.676-7.947 2.086-8.625 6.173-.677 4.087 2.086 7.948 6.173 8.625 6.746 1.118 13.571 2.321 20.315 3.581v45.944c-28.487-5.559-56.781-9.814-84.211-12.666-1.799-7.592-6.899-14.194-14.041-17.736-7.48-3.71-21.925-10.455-36.808-17.323v-13.571c25.56.845 52.529 3.087 80.256 6.677 4.026.548 7.888-2.351 8.401-6.475.532-4.108-2.367-7.869-6.475-8.401-28.378-3.673-55.997-5.96-82.182-6.809v-6.344c.075-34.105-41.827-51.462-65.823-27.263-1.39 1.39-2.66 2.867-3.806 4.419-17.282-23.791-54.515-19.631-66.27 7.167-19.936-19.829-54.695-11.206-63.381 15.232-24.351-21.985-64.281-4.317-64.159 28.807v39.541c-25.176 8.821-48.559 14.232-69.564 16.091-5.55.492-10.892.733-16.062.719-6.925-.143-13.019 5.964-12.875 12.888v49.291c0 7.091 5.761 12.875 12.839 12.892h.531c26.095 0 54.695-4.415 85.133-13.132v36.968c0 30.078 16.199 56.441 40.327 70.817v21.504c.344 9.931 14.659 9.923 15 0v-14.509c8.46 2.946 17.543 4.548 26.993 4.548h58.841c4.672.485 9.271 1.038 13.722 1.574 11.503 1.383 22.548 2.712 33.337 2.712 6.788 0 13.474-.526 20.106-1.896v86.071h-153v-42.779c-.344-9.931-14.659-9.923-15 0v43.522c-4.34 1.646-7.434 5.846-7.434 10.757v100c0 4.142 3.358 7.5 7.5 7.5h118.879c9.931-.344 9.923-14.659 0-15h-111.377v-89h167v89h-20.179c-9.931.344-9.923 14.659 0 15h27.679c4.142 0 7.5-3.358 7.5-7.5v-100c0-4.577-2.687-8.537-6.566-10.387v-91.885c14.024-6.029 27.975-16.98 42.328-35.924l28.044-37.044c13.083-17.281 20.167-37.875 20.487-59.557l.679-46.02c27.123 2.889 55.096 7.167 83.251 12.734 7.662 1.733 15.593-4.767 15.38-12.647v-50.257c.001-6.193-4.413-11.52-10.493-12.667zm-194.783-38.944c14.668-14.792 40.265-4.171 40.217 16.657v28.022c-17.131-7.856-31.769-14.498-32.996-15.054-3.807-1.779-8.13-1.68-12.174.277-.662.32-1.311.688-1.947 1.102v-14.35c0-.078-.001-.157-.002-.235.061-6.2 2.506-12.023 6.902-16.419zm-14.402 130.559c1.151 1.561 2.416 3.033 3.783 4.402-4.638 1.109-9.109 2.714-13.449 4.836 3.732-2.497 7.006-5.628 9.666-9.238zm32.308.697c-13.325.74-24.725-9.972-24.808-23.292 0-.077.001-.154.001-.231v-3.529c5.287 6.778 12.17 12.714 20.888 16.786l11.81 5.516c-1.652 1.793-4.658 3.513-7.891 4.75zm-63.364-138.159c12.912 0 23.431 10.442 23.556 23.324 0 .079-.001.157-.001.236v91.08c0 .076.001.151.001.227-1.574 31.092-45.847 30.869-47.113-.231v-1.873c.014-.423.021-.847.021-1.273v-75.979c0-.426-.008-.85-.021-1.273v-10.681c0-12.989 10.567-23.557 23.557-23.557zm-85.651 35.511c1.189-30.659 44.65-31.49 47.093-1.003v77.985c-2.455 30.51-45.916 29.633-47.093-1.003zm-38.557-7.147c12.989 0 23.557 10.568 23.557 23.557v75.979c-1.242 31.025-45.394 31.33-47.111.381l-.003-76.361c0-12.988 10.567-23.556 23.557-23.556zm-122.057 139.974v-45.073c4.918-.048 10.043-.306 15.261-.77 20.839-1.844 43.755-6.943 68.239-15.173l.003 47.264c-30.004 8.939-58.067 13.562-83.503 13.752zm383.499-68.558-.808 54.702c-.273 18.467-6.307 36.007-17.448 50.725l-28.043 37.042c-31.69 41.83-59.094 38.533-97.022 33.972-4.643-.559-15.021-1.688-15.34-1.681h-59.015c-37.12 0-67.32-30.217-67.32-67.36v-48.772c6.519 5.045 14.692 8.051 23.554 8.051 16.926 0 31.339-10.963 36.513-26.16 15.81 14.599 42.333 12.32 55.492-4.478 9.508 15.17 30.991 21.916 47.752 14.097-9.837 6.04-19.061 14.927-28.142 26.922-2.5 3.302-1.85 8.006 1.453 10.506 3.304 2.5 8.007 1.85 10.506-1.453 16.933-22.367 33.222-31.591 54.456-30.877 10.214.337 30.113-6.189 33.323-20.457 1.213-5.392-1.535-11-6.536-13.336l-14.817-6.921c-22.154-10.348-28.949-38.364-26.23-49.858 2.171-9.183 5.836-13.269 7.326-14.072 6.021 2.733 66.123 30.041 83.93 38.871 3.962 1.965 6.481 6.101 6.416 10.537z"/></g></g></svg>